<svg width="142" height="147" viewBox="0 0 142 147" fill="none" xmlns="http://www.w3.org/2000/svg">
<g clip-path="url(#clip0_1_62)">
<g filter="url(#filter0_f_1_62)">
<path fill-rule="evenodd" clip-rule="evenodd" d="M66.4239 10.1204C78.7252 8.01839 77.4336 34.0774 88.7231 39.3956C101.755 45.5348 122.959 28.8029 131.186 40.6284C139.032 51.9056 118.087 64.5093 115.594 78.019C113.726 88.14 124.999 100.059 118.713 108.208C112.113 116.764 97.1818 109.735 87.4719 114.475C78.7777 118.72 76.0559 134.649 66.4239 133.736C56.3704 132.784 56.075 116.122 47.5589 110.694C39.6357 105.645 27.9375 110.312 20.5533 104.502C12.5029 98.1689 5.51329 88.2493 6.02657 78.019C6.54124 67.761 14.9295 59.2029 23.136 53.0267C30.1467 47.7504 41.8977 52.509 48.1295 46.3321C57.9008 36.6469 52.8626 12.4377 66.4239 10.1204Z" fill="#EBC5CE"/>
</g>
<g filter="url(#filter1_n_1_62)">
<path d="M65.9515 10.0379C66.1845 11.0104 66.4174 11.9829 66.6503 12.9554C72.4713 11.7687 74.8526 19.8142 77.3976 25.7648C79.8799 31.295 81.7206 38.3522 89.3659 42.0718C98.3156 45.4213 106.284 41.8984 113.249 40.021C120.165 37.8739 127.461 36.2103 129.871 40.119C132.506 42.9884 130.435 47.9134 127.153 53.0784C123.303 59.5477 117.432 65.7024 115.874 75.5488C115.353 89.1297 125.716 98.5991 121.676 103.746C117.967 110.088 104.572 104.856 92.2834 110.945C86.4679 114.561 84.395 119.836 81.9362 123.933C79.5997 128.182 77.0921 131.508 74.539 131.21C71.6691 131.403 68.9867 127.778 66.5487 123.359C63.9883 119.09 61.7356 113.571 55.7391 110.095C44.6851 104.92 34.4248 110.386 28.5373 106.07C20.5866 100.698 13.6675 92.3254 13.3638 83.1774C13.1235 74.0684 20.1197 65.6373 27.5573 59.0477C32.7112 54.0209 43.8411 58.3056 52.0338 50.2527C57.4589 43.4924 57.4022 35.4518 58.4768 28.3771C59.3392 21.9015 60.5638 14.3293 66.6503 12.9554C66.4174 11.9829 66.1845 11.0104 65.9515 10.0379C57.3224 11.9635 55.9733 21.5723 54.8711 27.8466C53.6747 35.0099 53.0305 42.6838 48.824 47.4148C43.9425 52.9425 33.339 48.598 24.3028 55.2691C16.3875 62.0784 7.81647 70.9016 7.64085 83.2674C7.93158 95.4403 16.0363 104.957 24.9431 111.315C35.6636 117.76 46.3173 112.157 52.4503 116.093C55.5913 117.824 57.9065 122.273 60.3804 126.812C62.7964 130.962 66.173 138.086 74.3311 138.479C77.926 138.718 81.6213 136.653 83.6341 134.409C85.762 132.157 87.1035 129.825 88.3915 127.641C90.8714 123.319 93.2125 119.09 96.0566 117.535C99.5185 115.553 104.804 115.53 110.346 115.328C115.58 115.044 123.552 114.901 128.186 108.116C132.719 101.234 129.299 94.0294 127.472 89.4444C125.393 84.5845 123.331 79.977 123.79 76.4766C124.566 70.479 129.654 64.1504 133.939 57.3161C135.671 54.4963 137.464 51.4975 138.485 47.6473C139.63 43.9148 138.865 38.4588 135.989 35.2351C132.915 31.0396 126.783 29.5974 122.628 30.2129C118.286 30.6788 114.608 31.9837 111.058 33.1722C104.101 35.5325 97.0486 38.2794 91.5904 36.4105C87.4608 35.0285 84.4505 29.1667 81.7726 23.7902C80.232 20.7433 78.757 17.5555 76.5278 14.5379C74.5666 11.5509 69.9947 8.56194 65.9515 10.0379ZM66.6503 12.9554L65.9515 10.0379L66.6503 12.9554V12.9554Z" fill="#A9C3D8"/>
</g>
<g filter="url(#filter2_g_1_62)">
<path d="M71.2381 9.58472C71.3251 10.5809 71.4121 11.5771 71.499 12.5733C77.4313 12.2581 78.6001 20.5668 80.2397 26.8276C81.8793 32.6634 82.6592 39.9149 89.6724 44.7213C98.0302 49.354 106.431 47.0447 113.597 46.2151C120.753 45.1113 128.215 44.5419 130.023 48.7634C132.205 51.9898 129.431 56.5556 125.423 61.1802C120.661 67.0109 113.947 72.2326 110.954 81.7415C108.435 95.0971 117.289 105.991 112.534 110.486C107.93 116.212 95.4533 109.061 82.4009 113.272C76.1158 115.99 73.2877 120.902 70.2516 124.591C67.314 128.45 64.3433 131.369 61.8621 130.698C58.9951 130.466 56.8766 126.485 55.1168 121.755C53.2142 117.154 51.8 111.364 46.3816 107.042C36.2117 100.293 25.2574 104.186 20.0708 99.0491C12.9992 92.5638 7.39055 83.262 8.43921 74.1692C9.54495 65.1244 17.708 57.8171 26.0361 52.3965C31.8749 48.1847 42.2512 54.0639 51.542 47.3072C57.9047 41.421 59.0344 33.4599 61.1406 26.621C62.9485 20.3435 65.2765 13.0346 71.499 12.5733C71.4121 11.5771 71.3251 10.5809 71.2381 9.58472C62.4194 10.2166 59.6679 19.5215 57.6526 25.5646C55.4128 32.4731 53.644 39.9681 48.7858 44.027C43.1424 48.7744 33.2956 42.9137 23.3744 48.1792C14.5415 53.7468 4.76293 61.2095 2.76561 73.4142C1.25797 85.4969 7.87063 96.1045 15.7424 103.707C25.3951 111.663 36.7587 107.692 42.2443 112.489C45.0957 114.664 46.7294 119.406 48.5068 124.261C50.2845 128.721 52.5734 136.265 60.5843 137.858C64.1048 138.624 68.0642 137.126 70.386 135.204C72.8227 133.29 74.4935 131.181 76.0893 129.211C79.1796 125.302 82.1188 121.464 85.1611 120.346C88.8774 118.896 94.1088 119.653 99.6201 120.271C104.838 120.762 112.744 121.796 118.328 115.768C123.827 109.63 121.506 102 120.375 97.1955C119.036 92.0822 117.676 87.221 118.647 83.8266C120.298 78.009 126.264 72.4999 131.509 66.3722C133.638 63.8386 135.855 61.1372 137.432 57.4796C139.116 53.9568 139.163 48.4476 136.794 44.8351C134.372 40.2321 128.52 37.9015 124.319 37.8974C119.956 37.7179 116.127 38.4661 112.439 39.118C105.211 40.4266 97.8303 42.1034 92.7074 39.45C88.8267 37.4741 86.7138 31.2324 84.8581 25.5198C83.7837 22.279 82.795 18.9085 81.0351 15.5952C79.5359 12.3516 75.4547 8.72111 71.2381 9.58472ZM71.499 12.5733L71.2381 9.58472L71.499 12.5733V12.5733Z" fill="#E7B6C2"/>
</g>
<path d="M41.355 75.685C41.655 75.535 41.97 75.43 42.3 75.37C42.63 75.3 42.955 75.285 43.275 75.325C43.605 75.355 43.92 75.44 44.22 75.58C44.52 75.71 44.8 75.9 45.06 76.15C45.32 76.41 45.52 76.695 45.66 77.005C45.8 77.315 45.9 77.66 45.96 78.04C46 78.3 46.065 78.54 46.155 78.76C46.245 78.98 46.34 79.2 46.44 79.42C46.55 79.64 46.65 79.86 46.74 80.08C46.84 80.3 46.92 80.53 46.98 80.77C47.03 81 47.01 81.225 46.92 81.445C46.84 81.655 46.67 81.785 46.41 81.835C46.26 81.865 46.115 81.855 45.975 81.805C45.845 81.745 45.725 81.665 45.615 81.565C45.505 81.455 45.405 81.34 45.315 81.22C45.235 81.09 45.16 80.97 45.09 80.86C44.86 81.16 44.61 81.395 44.34 81.565C44.07 81.725 43.745 81.83 43.365 81.88C43.045 81.92 42.74 81.93 42.45 81.91C42.16 81.89 41.85 81.835 41.52 81.745C41.09 81.635 40.735 81.445 40.455 81.175C40.185 80.895 39.975 80.575 39.825 80.215C39.685 79.845 39.61 79.45 39.6 79.03C39.59 78.61 39.64 78.195 39.75 77.785C39.89 77.245 40.1 76.805 40.38 76.465C40.66 76.125 40.985 75.865 41.355 75.685ZM41.73 77.44C41.59 77.58 41.48 77.745 41.4 77.935C41.32 78.125 41.27 78.325 41.25 78.535C41.24 78.745 41.26 78.955 41.31 79.165C41.36 79.375 41.44 79.56 41.55 79.72C41.65 79.86 41.82 79.98 42.06 80.08C42.3 80.17 42.55 80.225 42.81 80.245C43.11 80.265 43.37 80.185 43.59 80.005C43.82 79.825 43.99 79.6 44.1 79.33C44.22 79.05 44.275 78.755 44.265 78.445C44.255 78.125 44.17 77.835 44.01 77.575C43.89 77.385 43.73 77.245 43.53 77.155C43.34 77.065 43.135 77.02 42.915 77.02C42.695 77.01 42.475 77.045 42.255 77.125C42.045 77.195 41.87 77.3 41.73 77.44ZM53.1779 75.25C53.4679 75.37 53.7329 75.545 53.9729 75.775C54.2129 75.995 54.4179 76.25 54.5879 76.54C54.7679 76.83 54.9029 77.145 54.9929 77.485C55.0929 77.815 55.1429 78.15 55.1429 78.49C55.1529 79 55.0329 79.48 54.7829 79.93C54.5429 80.38 54.1479 80.725 53.5979 80.965C53.1779 81.135 52.7429 81.265 52.2929 81.355C51.8529 81.435 51.3929 81.49 50.9129 81.52V84.265C50.9129 84.325 50.9029 84.38 50.8829 84.43C50.8729 84.48 50.8679 84.53 50.8679 84.58C50.8479 84.68 50.8229 84.77 50.7929 84.85C50.7729 84.93 50.7429 85.015 50.7029 85.105C50.6629 85.165 50.6229 85.22 50.5829 85.27C50.5429 85.32 50.4979 85.37 50.4479 85.42C50.2079 85.54 49.9579 85.565 49.6979 85.495C49.5379 85.485 49.4079 85.435 49.3079 85.345C49.2179 85.255 49.1529 85.16 49.1129 85.06C49.0729 84.96 49.0379 84.845 49.0079 84.715C48.9979 84.665 48.9879 84.615 48.9779 84.565C48.9779 84.525 48.9779 84.48 48.9779 84.43V76.075C48.9779 76.015 48.9779 75.955 48.9779 75.895C48.9879 75.825 48.9979 75.755 49.0079 75.685C49.0179 75.565 49.0479 75.445 49.0979 75.325C49.1879 75.075 49.3729 74.905 49.6529 74.815C49.9329 74.725 50.2479 74.685 50.5979 74.695C50.8379 74.705 51.0829 74.73 51.3329 74.77C51.5929 74.81 51.8379 74.86 52.0679 74.92C52.3079 74.97 52.5229 75.025 52.7129 75.085C52.9029 75.145 53.0579 75.2 53.1779 75.25ZM53.2079 78.49C53.2479 78.21 53.2129 77.975 53.1029 77.785C53.0029 77.585 52.8579 77.425 52.6679 77.305C52.4779 77.175 52.2579 77.075 52.0079 77.005C51.7679 76.935 51.5279 76.885 51.2879 76.855C51.2579 76.845 51.2079 76.84 51.1379 76.84C51.0779 76.84 51.0079 76.84 50.9279 76.84C50.9279 77.16 50.9279 77.47 50.9279 77.77C50.9379 78.06 50.9379 78.375 50.9279 78.715V79.72C51.1579 79.71 51.3979 79.685 51.6479 79.645C51.9079 79.605 52.1479 79.54 52.3679 79.45C52.5879 79.36 52.7729 79.24 52.9229 79.09C53.0829 78.94 53.1779 78.74 53.2079 78.49ZM62.3007 79.945C62.4207 79.915 62.5407 79.895 62.6607 79.885C62.7907 79.875 62.9057 79.89 63.0057 79.93C63.1157 79.97 63.2057 80.04 63.2757 80.14C63.3457 80.23 63.3807 80.36 63.3807 80.53C63.3807 80.65 63.3507 80.765 63.2907 80.875C63.2307 80.985 63.1557 81.085 63.0657 81.175C62.9757 81.265 62.8757 81.345 62.7657 81.415C62.6557 81.475 62.5507 81.525 62.4507 81.565C62.1607 81.695 61.8257 81.795 61.4457 81.865C61.0757 81.935 60.6907 81.96 60.2907 81.94C59.7507 81.92 59.2307 81.815 58.7307 81.625C58.2407 81.425 57.8557 81.1 57.5757 80.65C57.3157 80.21 57.1607 79.72 57.1107 79.18C57.0607 78.64 57.0857 78.13 57.1857 77.65C57.2957 77.07 57.4807 76.6 57.7407 76.24C58.0107 75.87 58.3307 75.575 58.7007 75.355C59.1507 75.095 59.6557 74.96 60.2157 74.95C60.7757 74.94 61.3107 75.05 61.8207 75.28C62.1607 75.43 62.4657 75.635 62.7357 75.895C63.0057 76.145 63.2107 76.45 63.3507 76.81C63.3907 76.9 63.4207 77.01 63.4407 77.14C63.4707 77.27 63.4907 77.41 63.5007 77.56C63.5107 77.7 63.5107 77.84 63.5007 77.98C63.4907 78.12 63.4657 78.245 63.4257 78.355C63.3657 78.535 63.2907 78.675 63.2007 78.775C63.1107 78.875 62.9957 78.95 62.8557 79C62.7157 79.05 62.5457 79.085 62.3457 79.105C62.1557 79.115 61.9257 79.125 61.6557 79.135C61.4157 79.145 61.1907 79.15 60.9807 79.15C60.7707 79.15 60.5557 79.15 60.3357 79.15C60.1157 79.14 59.8857 79.135 59.6457 79.135C59.4157 79.125 59.1557 79.115 58.8657 79.105C58.8357 79.305 58.8607 79.48 58.9407 79.63C59.0307 79.77 59.1507 79.89 59.3007 79.99C59.4507 80.08 59.6207 80.15 59.8107 80.2C60.0007 80.25 60.1857 80.28 60.3657 80.29C60.7057 80.31 61.0307 80.285 61.3407 80.215C61.6507 80.135 61.9707 80.045 62.3007 79.945ZM61.6557 77.035C61.4657 76.815 61.2657 76.655 61.0557 76.555C60.8957 76.485 60.7257 76.455 60.5457 76.465C60.3757 76.465 60.2107 76.49 60.0507 76.54C59.7607 76.61 59.5157 76.76 59.3157 76.99C59.2957 77.01 59.2607 77.06 59.2107 77.14C59.1607 77.21 59.1107 77.285 59.0607 77.365C59.0207 77.445 58.9907 77.52 58.9707 77.59C58.9507 77.66 58.9607 77.695 59.0007 77.695H61.9407C61.9307 77.555 61.9057 77.44 61.8657 77.35C61.8257 77.25 61.7557 77.145 61.6557 77.035ZM65.4783 76.69C65.4783 76.57 65.4783 76.435 65.4783 76.285C65.4783 76.125 65.4833 75.965 65.4933 75.805C65.5033 75.635 65.5183 75.475 65.5383 75.325C65.5683 75.165 65.6083 75.025 65.6583 74.905C65.7383 74.725 65.8633 74.605 66.0333 74.545C66.2033 74.475 66.3883 74.445 66.5883 74.455C66.7983 74.455 66.9633 74.49 67.0833 74.56C67.2033 74.63 67.2933 74.725 67.3533 74.845C67.4133 74.955 67.4483 75.085 67.4583 75.235C67.4783 75.375 67.4883 75.525 67.4883 75.685C67.5783 75.525 67.6983 75.395 67.8483 75.295C68.0083 75.195 68.1683 75.115 68.3283 75.055C68.4883 74.995 68.6333 74.955 68.7633 74.935C68.8933 74.905 68.9683 74.89 68.9883 74.89C69.2383 74.87 69.4633 74.865 69.6633 74.875C69.8733 74.885 70.1033 74.93 70.3533 75.01C70.5133 75.07 70.6783 75.155 70.8483 75.265C71.0183 75.365 71.1683 75.485 71.2983 75.625C71.4283 75.765 71.5133 75.92 71.5533 76.09C71.6033 76.25 71.5833 76.42 71.4933 76.6C71.3533 76.85 71.1983 76.975 71.0283 76.975C70.8583 76.965 70.6733 76.935 70.4733 76.885C70.3633 76.865 70.2333 76.82 70.0833 76.75C69.9333 76.68 69.8033 76.635 69.6933 76.615C69.3533 76.565 69.0533 76.59 68.7933 76.69C68.5333 76.79 68.3083 76.91 68.1183 77.05C67.8983 77.22 67.7083 77.415 67.5483 77.635V79.795C67.5483 80.065 67.5433 80.345 67.5333 80.635C67.5333 80.925 67.4933 81.19 67.4133 81.43C67.3433 81.66 67.2183 81.85 67.0383 82C66.8683 82.14 66.6183 82.2 66.2883 82.18C66.1083 82.17 65.9483 82.085 65.8083 81.925C65.6683 81.755 65.5833 81.59 65.5533 81.43C65.5333 81.28 65.5183 81.1 65.5083 80.89C65.4983 80.68 65.4883 80.46 65.4783 80.23C65.4783 80 65.4783 79.77 65.4783 79.54C65.4783 79.3 65.4783 79.08 65.4783 78.88V76.69ZM79.4884 75.385C79.5684 75.575 79.5734 75.785 79.5034 76.015C79.4434 76.245 79.3284 76.395 79.1584 76.465C79.0684 76.505 78.9484 76.54 78.7984 76.57C78.6484 76.59 78.4834 76.61 78.3034 76.63C78.1334 76.65 77.9634 76.665 77.7934 76.675C77.6234 76.685 77.4784 76.69 77.3584 76.69C77.3684 76.99 77.3784 77.3 77.3884 77.62C77.3984 77.93 77.4084 78.235 77.4184 78.535C77.4284 78.835 77.4334 79.125 77.4334 79.405C77.4334 79.675 77.4284 79.92 77.4184 80.14C77.4184 80.29 77.4184 80.465 77.4184 80.665C77.4184 80.855 77.4034 81.04 77.3734 81.22C77.3534 81.4 77.3184 81.56 77.2684 81.7C77.2184 81.83 77.1434 81.915 77.0434 81.955C76.7334 82.085 76.4484 82.12 76.1884 82.06C75.9384 82.01 75.7584 81.905 75.6484 81.745C75.5684 81.615 75.5084 81.465 75.4684 81.295C75.4284 81.115 75.3984 80.935 75.3784 80.755C75.3684 80.565 75.3634 80.385 75.3634 80.215C75.3734 80.035 75.3784 79.88 75.3784 79.75C75.3884 79.33 75.3934 78.855 75.3934 78.325C75.4034 77.785 75.4084 77.245 75.4084 76.705H75.1834C75.0634 76.705 74.9084 76.705 74.7184 76.705C74.5384 76.695 74.3534 76.68 74.1634 76.66C73.9834 76.63 73.8134 76.595 73.6534 76.555C73.4934 76.505 73.3784 76.435 73.3084 76.345C73.1984 76.215 73.1284 76.075 73.0984 75.925C73.0784 75.775 73.0884 75.635 73.1284 75.505C73.1784 75.365 73.2534 75.245 73.3534 75.145C73.4534 75.035 73.5684 74.965 73.6984 74.935C73.8784 74.885 74.1334 74.86 74.4634 74.86C74.7934 74.85 75.1034 74.85 75.3934 74.86C75.3834 74.76 75.3784 74.665 75.3784 74.575C75.3784 74.475 75.3734 74.38 75.3634 74.29C75.3534 74.17 75.3484 74.02 75.3484 73.84C75.3484 73.65 75.3584 73.465 75.3784 73.285C75.4084 73.095 75.4534 72.92 75.5134 72.76C75.5734 72.59 75.6584 72.46 75.7684 72.37C75.9184 72.25 76.0684 72.185 76.2184 72.175C76.3784 72.155 76.5234 72.175 76.6534 72.235C76.7934 72.295 76.9084 72.385 76.9984 72.505C77.0984 72.615 77.1684 72.74 77.2084 72.88C77.2384 73 77.2634 73.145 77.2834 73.315C77.3034 73.475 77.3134 73.645 77.3134 73.825C77.3234 74.005 77.3284 74.185 77.3284 74.365C77.3284 74.545 77.3284 74.71 77.3284 74.86H77.4784C77.6284 74.86 77.8034 74.855 78.0034 74.845C78.2034 74.835 78.3984 74.84 78.5884 74.86C78.7884 74.88 78.9684 74.93 79.1284 75.01C79.2884 75.08 79.4084 75.205 79.4884 75.385ZM87.6741 78.43C87.6541 78.76 87.6341 79.095 87.6141 79.435C87.5941 79.765 87.5391 80.085 87.4491 80.395C87.3691 80.705 87.2391 80.985 87.0591 81.235C86.8891 81.485 86.6441 81.685 86.3241 81.835C86.0441 81.975 85.7441 82.07 85.4241 82.12C85.1041 82.18 84.7841 82.205 84.4641 82.195C84.1441 82.185 83.8341 82.135 83.5341 82.045C83.2341 81.965 82.9641 81.85 82.7241 81.7C82.4841 81.55 82.2891 81.355 82.1391 81.115C81.9891 80.875 81.8691 80.615 81.7791 80.335C81.6991 80.055 81.6441 79.765 81.6141 79.465C81.5841 79.165 81.5641 78.885 81.5541 78.625C81.5141 77.935 81.5141 77.255 81.5541 76.585C81.5541 76.455 81.5541 76.31 81.5541 76.15C81.5541 75.98 81.5641 75.815 81.5841 75.655C81.6141 75.495 81.6591 75.35 81.7191 75.22C81.7791 75.08 81.8791 74.975 82.0191 74.905C82.3191 74.745 82.5941 74.735 82.8441 74.875C83.1041 75.015 83.2591 75.305 83.3091 75.745C83.3391 75.975 83.3491 76.23 83.3391 76.51C83.3391 76.79 83.3491 77.045 83.3691 77.275C83.3791 77.615 83.3891 77.985 83.3991 78.385C83.4091 78.775 83.4641 79.125 83.5641 79.435C83.6741 79.745 83.8491 79.98 84.0891 80.14C84.3391 80.29 84.7091 80.295 85.1991 80.155C85.4291 80.085 85.5791 79.91 85.6491 79.63C85.7291 79.35 85.7691 78.935 85.7691 78.385C85.7691 78.145 85.7641 77.88 85.7541 77.59C85.7441 77.3 85.7391 77.015 85.7391 76.735C85.7391 76.445 85.7441 76.18 85.7541 75.94C85.7741 75.69 85.8041 75.5 85.8441 75.37C85.8941 75.19 85.9991 75.055 86.1591 74.965C86.3191 74.875 86.4891 74.83 86.6691 74.83C86.8491 74.82 87.0191 74.855 87.1791 74.935C87.3391 75.015 87.4491 75.145 87.5091 75.325C87.5691 75.485 87.6091 75.69 87.6291 75.94C87.6591 76.18 87.6791 76.445 87.6891 76.735C87.6991 77.015 87.6991 77.305 87.6891 77.605C87.6891 77.895 87.6841 78.17 87.6741 78.43ZM98.1089 78.505C98.1289 78.825 98.1389 79.13 98.1389 79.42C98.1389 79.7 98.1289 80 98.1089 80.32C98.1089 80.44 98.1089 80.575 98.1089 80.725C98.1089 80.875 98.0989 81.02 98.0789 81.16C98.0589 81.3 98.0239 81.43 97.9739 81.55C97.9239 81.67 97.8489 81.765 97.7489 81.835C97.6289 81.915 97.4939 81.97 97.3439 82C97.1939 82.02 97.0539 82.01 96.9239 81.97C96.7939 81.93 96.6789 81.855 96.5789 81.745C96.4889 81.635 96.4389 81.48 96.4289 81.28C96.3989 80.82 96.3839 80.36 96.3839 79.9C96.3839 79.67 96.3789 79.45 96.3689 79.24C96.3689 79.03 96.3739 78.735 96.3839 78.355C96.3839 78.165 96.3689 77.95 96.3389 77.71C96.3089 77.46 96.2339 77.285 96.1139 77.185C96.0239 77.105 95.9239 77.06 95.8139 77.05C95.7039 77.03 95.5939 77.04 95.4839 77.08C95.3839 77.12 95.2939 77.195 95.2139 77.305C95.1339 77.405 95.0789 77.535 95.0489 77.695C95.0489 77.825 95.0439 77.96 95.0339 78.1C95.0339 78.23 95.0389 78.355 95.0489 78.475C95.0589 78.795 95.0639 79.1 95.0639 79.39C95.0639 79.67 95.0589 79.97 95.0489 80.29C95.0389 80.42 95.0339 80.56 95.0339 80.71C95.0439 80.86 95.0439 81.01 95.0339 81.16C95.0239 81.3 94.9939 81.43 94.9439 81.55C94.9039 81.67 94.8289 81.765 94.7189 81.835C94.5989 81.915 94.4689 81.965 94.3289 81.985C94.1989 81.995 94.0739 81.975 93.9539 81.925C93.8439 81.865 93.7439 81.775 93.6539 81.655C93.5739 81.535 93.5289 81.375 93.5189 81.175C93.4989 80.945 93.4839 80.735 93.4739 80.545C93.4739 80.345 93.4739 80.135 93.4739 79.915C93.4739 79.685 93.4789 79.45 93.4889 79.21C93.4989 78.96 93.4939 78.72 93.4739 78.49C93.4739 78.42 93.4689 78.34 93.4589 78.25C93.4589 78.15 93.4539 78.05 93.4439 77.95C93.4439 77.85 93.4339 77.755 93.4139 77.665C93.4039 77.565 93.3839 77.485 93.3539 77.425C93.2739 77.285 93.1289 77.195 92.9189 77.155C92.7189 77.115 92.5489 77.13 92.4089 77.2C92.2689 77.27 92.1639 77.36 92.0939 77.47C92.0239 77.58 91.9739 77.7 91.9439 77.83C91.9139 77.96 91.8989 78.1 91.8989 78.25C91.8989 78.39 91.8989 78.525 91.8989 78.655C91.8989 79.305 91.8989 79.87 91.8989 80.35C91.9089 80.82 91.8589 81.2 91.7489 81.49C91.6989 81.64 91.5939 81.755 91.4339 81.835C91.2839 81.915 91.1189 81.955 90.9389 81.955C90.7689 81.955 90.6089 81.915 90.4589 81.835C90.3089 81.755 90.2089 81.63 90.1589 81.46C90.1289 81.35 90.0989 81.195 90.0689 80.995C90.0489 80.785 90.0339 80.555 90.0239 80.305C90.0139 80.055 90.0089 79.805 90.0089 79.555C90.0089 79.295 90.0089 79.06 90.0089 78.85V76.69C89.9989 76.46 89.9939 76.21 89.9939 75.94C89.9939 75.67 90.0339 75.425 90.1139 75.205C90.1839 75.015 90.2939 74.895 90.4439 74.845C90.5939 74.785 90.7489 74.76 90.9089 74.77C91.0889 74.77 91.2289 74.82 91.3289 74.92C91.4389 75.01 91.5189 75.125 91.5689 75.265C91.6189 75.395 91.6489 75.545 91.6589 75.715C91.6689 75.875 91.6789 76.03 91.6889 76.18C91.7989 75.93 91.9289 75.725 92.0789 75.565C92.2389 75.395 92.4639 75.285 92.7539 75.235C93.4939 75.095 94.0839 75.285 94.5239 75.805C94.7239 75.605 94.9789 75.44 95.2889 75.31C95.5289 75.22 95.7739 75.18 96.0239 75.19C96.2739 75.19 96.5089 75.235 96.7289 75.325C96.9589 75.415 97.1639 75.545 97.3439 75.715C97.5339 75.885 97.6839 76.09 97.7939 76.33C97.9439 76.65 98.0289 77.005 98.0489 77.395C98.0689 77.785 98.0889 78.155 98.1089 78.505Z" fill="#FDFDFD"/>
</g>
<defs>
<filter id="filter0_f_1_62" x="2.99997" y="7.00003" width="132.936" height="129.774" filterUnits="userSpaceOnUse" color-interpolation-filters="sRGB">
<feFlood flood-opacity="0" result="BackgroundImageFix"/>
<feBlend mode="normal" in="SourceGraphic" in2="BackgroundImageFix" result="shape"/>
<feGaussianBlur stdDeviation="1.5" result="effect1_foregroundBlur_1_62"/>
</filter>
<filter id="filter1_n_1_62" x="7.64084" y="9.6488" width="131.354" height="128.849" filterUnits="userSpaceOnUse" color-interpolation-filters="sRGB">
<feFlood flood-opacity="0" result="BackgroundImageFix"/>
<feBlend mode="normal" in="SourceGraphic" in2="BackgroundImageFix" result="shape"/>
<feTurbulence type="fractalNoise" baseFrequency="2 2" stitchTiles="stitch" numOctaves="3" result="noise" seed="3372" />
<feColorMatrix in="noise" type="luminanceToAlpha" result="alphaNoise" />
<feComponentTransfer in="alphaNoise" result="coloredNoise1">
<feFuncA type="discrete" tableValues="1 1 1 1 1 1 1 1 1 1 1 1 1 1 1 1 1 1 1 1 1 1 1 1 1 1 1 1 1 1 1 1 1 1 1 1 1 1 1 1 1 1 1 1 1 1 1 1 1 1 1 0 0 0 0 0 0 0 0 0 0 0 0 0 0 0 0 0 0 0 0 0 0 0 0 0 0 0 0 0 0 0 0 0 0 0 0 0 0 0 0 0 0 0 0 0 0 0 0 0 "/>
</feComponentTransfer>
<feComposite operator="in" in2="shape" in="coloredNoise1" result="noise1Clipped" />
<feFlood flood-color="rgba(0, 0, 0, 0.25)" result="color1Flood" />
<feComposite operator="in" in2="noise1Clipped" in="color1Flood" result="color1" />
<feMerge result="effect1_noise_1_62">
<feMergeNode in="shape" />
<feMergeNode in="color1" />
</feMerge>
</filter>
<filter id="filter2_g_1_62" x="-1.45016" y="5.45554" width="144.091" height="136.607" filterUnits="userSpaceOnUse" color-interpolation-filters="sRGB">
<feFlood flood-opacity="0" result="BackgroundImageFix"/>
<feBlend mode="normal" in="SourceGraphic" in2="BackgroundImageFix" result="shape"/>
<feTurbulence type="fractalNoise" baseFrequency="2 2" numOctaves="3" seed="8009" />
<feDisplacementMap in="shape" scale="8" xChannelSelector="R" yChannelSelector="G" result="displacedImage" width="100%" height="100%" />
<feMerge result="effect1_texture_1_62">
<feMergeNode in="displacedImage"/>
</feMerge>
</filter>
<clipPath id="clip0_1_62">
<rect width="142" height="147" fill="white"/>
</clipPath>
</defs>
</svg>
